<?xml version="1.0" encoding="utf-8"?>
<svg version="1.1" id="layer1" xmlns="http://www.w3.org/2000/svg" xmlns:xlink="http://www.w3.org/1999/xlink" x="0px" y="0px"
	 viewBox="0 0 109.31 15.16" style="enable-background:new 0 0 109.31 15.16;" xml:space="preserve">
<g>
	<path d="M0.78,0h3.86c1.51,0,2.23,0.87,2.14,2.6L6.59,6.34c-0.06,1.31-0.5,2.15-1.32,2.51l1.07,6.31H4.47L3.49,9.04h-1.2
		l-0.31,6.12H0L0.78,0z M2.37,7.31h1.3c0.59,0,0.9-0.36,0.94-1.1l0.17-3.27c0.04-0.74-0.23-1.1-0.82-1.1h-1.3L2.37,7.31z"/>
	<path d="M9.64,15.16H7.67L8.32,2.6C8.4,0.87,9.24,0,10.81,0h1.47c1.57,0,2.33,0.87,2.25,2.6l-0.65,12.57h-1.97l0.27-5.55H9.91
		L9.64,15.16z M12.28,7.77l0.27-5.05c0.02-0.59-0.25-0.89-0.82-0.89h-0.55c-0.59,0-0.88,0.3-0.9,0.89l-0.27,5.05H12.28z"/>
	<path d="M15.62,15.16L16.4,0h1.97L17.6,15.16H15.62z"/>
	<path d="M23.94,7.33L24.32,0h1.97l-0.78,15.16h-1.97l0.15-3.02l-1.76-6.91l-0.5,9.93h-1.97L20.22,0h1.97L23.94,7.33z"/>
	<path d="M32.36,7.37c1.07,0.32,1.57,0.89,1.53,1.73l-0.21,3.8c-0.06,1.5-0.86,2.26-2.35,2.26h-3.97L28.14,0h3.38
		C33.26,0,34.1,0.91,34,2.75l-0.15,2.91c-0.04,0.87-0.55,1.41-1.49,1.6V7.37z M29.42,13.33h1.49c0.52,0,0.8-0.21,0.82-0.66
		l0.17-3.36c0.04-0.72-0.34-1.08-1.11-1.08h-1.09L29.42,13.33z M29.78,6.4h0.92c0.76,0,1.15-0.36,1.2-1.1l0.13-2.37
		c0.04-0.74-0.23-1.1-0.82-1.1h-1.18L29.78,6.4z"/>
	<path d="M37.5,15.16c-1.6,0-2.35-0.87-2.27-2.58l0.52-9.99c0.08-1.73,0.92-2.6,2.5-2.6h1.89c1.57,0,2.33,0.87,2.25,2.6l-0.52,9.99
		c-0.08,1.71-0.92,2.58-2.52,2.58H37.5z M39.06,13.33c0.52,0,0.82-0.3,0.84-0.89l0.52-9.71c0.02-0.59-0.27-0.89-0.84-0.89h-0.94
		c-0.59,0-0.88,0.3-0.9,0.89l-0.52,9.71c-0.02,0.59,0.25,0.89,0.84,0.89H39.06z"/>
	<path d="M54.6,0l-2.96,15.16H49.5l-0.78-8.79l-1.64,8.79h-2.14L43.53,0h1.95l0.82,11.36L48.3,0h1.53l0.82,11.36L52.64,0H54.6z"/>
	<path d="M59.47,4.29l0.06-1.35c0.04-0.74-0.23-1.1-0.82-1.1h-0.34c-0.52,0-0.8,0.3-0.82,0.89l-0.25,4.6l1.28-0.84h0.59
		c1.51,0,2.23,0.87,2.14,2.6l-0.19,3.53c-0.08,1.71-0.88,2.56-2.39,2.56H57.2c-1.51,0-2.23-0.84-2.14-2.56L55.59,2.6
		C55.67,0.87,56.47,0,57.98,0h1.41c1.51,0,2.23,0.87,2.14,2.6l-0.08,1.69H59.47z M57.27,8.32l-0.21,4.1
		c-0.04,0.61,0.23,0.91,0.8,0.91h0.38c0.59,0,0.9-0.3,0.94-0.91l0.15-3c0.04-0.74-0.23-1.1-0.82-1.1H57.27z"/>
	<path d="M62.52,9.23l0.1-1.69h4.54l-0.1,1.69H62.52z"/>
	<path d="M68.67,0h3.86c1.51,0,2.23,0.87,2.14,2.6l-0.19,3.74c-0.06,1.31-0.5,2.15-1.32,2.51l1.07,6.31h-1.87l-0.99-6.12h-1.2
		l-0.31,6.12h-1.97L68.67,0z M70.26,7.31h1.3c0.59,0,0.9-0.36,0.94-1.1l0.17-3.27c0.04-0.74-0.23-1.1-0.82-1.1h-1.3L70.26,7.31z"/>
	<path d="M82.86,0l-0.63,12.29c-0.1,1.92-0.94,2.87-2.54,2.87h-1.66c-1.6,0-2.33-0.97-2.23-2.89L76.44,0h1.97l-0.63,12.33
		c-0.04,0.66,0.23,0.99,0.8,0.99h0.82c0.52,0,0.82-0.34,0.86-0.99L80.89,0H82.86z"/>
	<path d="M88.28,4.08l0.06-1.33c0.04-0.61-0.23-0.91-0.8-0.91h-0.31c-0.57,0-0.86,0.3-0.9,0.91L86.2,5.26
		c-0.02,0.57,0.17,0.63,0.65,0.95l1.81,1.03c1.13,0.82,1.32,0.55,1.32,2.13l-0.17,3.23c-0.08,1.71-0.92,2.56-2.52,2.56h-1.2
		c-1.57,0-2.33-0.93-2.23-2.79l0.04-0.76h1.97l-0.06,0.82c-0.02,0.59,0.25,0.89,0.84,0.89h0.36c0.52,0,0.8-0.3,0.82-0.89l0.15-2.58
		c0.02-0.57-0.17-0.63-0.65-0.95l-1.81-1.08c-1.18-0.68-1.32-0.87-1.32-2.13l0.17-3.1C84.46,0.87,85.3,0,86.88,0h1.22
		c1.57,0,2.33,0.87,2.25,2.6l-0.08,1.48H88.28z"/>
	<path d="M95.67,4.08l0.06-1.33c0.04-0.61-0.23-0.91-0.8-0.91h-0.31c-0.57,0-0.86,0.3-0.9,0.91L93.6,5.26
		c-0.02,0.57,0.17,0.63,0.65,0.95l1.81,1.03c1.13,0.82,1.32,0.55,1.32,2.13l-0.17,3.23c-0.08,1.71-0.92,2.56-2.52,2.56h-1.2
		c-1.57,0-2.33-0.93-2.23-2.79l0.04-0.76h1.97l-0.06,0.82c-0.02,0.59,0.25,0.89,0.84,0.89h0.36c0.52,0,0.8-0.3,0.82-0.89l0.15-2.58
		c0.02-0.57-0.17-0.63-0.65-0.95l-1.81-1.08C91.75,7.16,91.6,6.97,91.6,5.7l0.17-3.1c0.08-1.73,0.92-2.6,2.5-2.6h1.22
		c1.57,0,2.33,0.87,2.25,2.6l-0.08,1.48H95.67z"/>
	<path d="M98.72,15.16L99.5,0h1.97l-0.78,15.16H98.72z"/>
	<path d="M104.41,15.16h-1.97l0.65-12.57c0.08-1.73,0.92-2.6,2.5-2.6h1.47c1.57,0,2.33,0.87,2.25,2.6l-0.65,12.57h-1.97l0.27-5.55
		h-2.27L104.41,15.16z M107.06,7.77l0.27-5.05c0.02-0.59-0.25-0.89-0.82-0.89h-0.55c-0.59,0-0.88,0.3-0.9,0.89l-0.27,5.05H107.06z"
		/>
</g>
</svg>
